<mxfile host="app.diagrams.net" modified="2021-12-17T03:48:33.332Z" agent="5.0 (Macintosh; Intel Mac OS X 10_15_7) AppleWebKit/537.36 (KHTML, like Gecko) Chrome/96.0.4664.93 Safari/537.36" etag="Jm_vS0xNc1fmqBhnKtxl" version="15.9.6" type="github">
  <diagram id="Te5YY8LxiNCL_96-FdH6" name="第 1 页">
    <mxGraphModel dx="3838" dy="4336" grid="1" gridSize="10" guides="1" tooltips="1" connect="1" arrows="1" fold="1" page="1" pageScale="1" pageWidth="1169" pageHeight="1654" math="0" shadow="0">
      <root>
        <mxCell id="0" />
        <mxCell id="1" parent="0" />
        <mxCell id="dTmaL1U6KmH8cPu5LNKW-108" style="edgeStyle=orthogonalEdgeStyle;curved=1;rounded=0;orthogonalLoop=1;jettySize=auto;html=1;entryX=1;entryY=0.5;entryDx=0;entryDy=0;dashed=1;" edge="1" parent="1" source="dTmaL1U6KmH8cPu5LNKW-19" target="dTmaL1U6KmH8cPu5LNKW-93">
          <mxGeometry relative="1" as="geometry">
            <Array as="points">
              <mxPoint x="-1485" y="-2240" />
            </Array>
          </mxGeometry>
        </mxCell>
        <mxCell id="dTmaL1U6KmH8cPu5LNKW-109" value="info" style="edgeLabel;html=1;align=center;verticalAlign=middle;resizable=0;points=[];" vertex="1" connectable="0" parent="dTmaL1U6KmH8cPu5LNKW-108">
          <mxGeometry x="0.1584" y="-6" relative="1" as="geometry">
            <mxPoint as="offset" />
          </mxGeometry>
        </mxCell>
        <mxCell id="dTmaL1U6KmH8cPu5LNKW-19" value="" style="whiteSpace=wrap;html=1;" vertex="1" parent="1">
          <mxGeometry x="-1590" y="-2170" width="210" height="330" as="geometry" />
        </mxCell>
        <mxCell id="dTmaL1U6KmH8cPu5LNKW-101" value="" style="rounded=0;whiteSpace=wrap;html=1;" vertex="1" parent="1">
          <mxGeometry x="-1562.5" y="-2125" width="155" height="250" as="geometry" />
        </mxCell>
        <mxCell id="dTmaL1U6KmH8cPu5LNKW-85" value="" style="whiteSpace=wrap;html=1;" vertex="1" parent="1">
          <mxGeometry x="-1350" y="-2140" width="199.5" height="260" as="geometry" />
        </mxCell>
        <mxCell id="dTmaL1U6KmH8cPu5LNKW-107" style="edgeStyle=orthogonalEdgeStyle;curved=1;rounded=0;orthogonalLoop=1;jettySize=auto;html=1;entryX=0;entryY=0.5;entryDx=0;entryDy=0;dashed=1;" edge="1" parent="1" source="dTmaL1U6KmH8cPu5LNKW-16" target="dTmaL1U6KmH8cPu5LNKW-93">
          <mxGeometry relative="1" as="geometry">
            <Array as="points">
              <mxPoint x="-1940" y="-2240" />
            </Array>
          </mxGeometry>
        </mxCell>
        <mxCell id="dTmaL1U6KmH8cPu5LNKW-110" value="info" style="edgeLabel;html=1;align=center;verticalAlign=middle;resizable=0;points=[];" vertex="1" connectable="0" parent="dTmaL1U6KmH8cPu5LNKW-107">
          <mxGeometry x="-0.2933" y="-26" relative="1" as="geometry">
            <mxPoint y="1" as="offset" />
          </mxGeometry>
        </mxCell>
        <mxCell id="dTmaL1U6KmH8cPu5LNKW-16" value="jobThreadQueue" style="shape=process;whiteSpace=wrap;html=1;backgroundOutline=1;" vertex="1" parent="1">
          <mxGeometry x="-2005" y="-2090" width="130" height="60" as="geometry" />
        </mxCell>
        <mxCell id="dTmaL1U6KmH8cPu5LNKW-18" value="" style="rounded=0;whiteSpace=wrap;html=1;" vertex="1" parent="1">
          <mxGeometry x="-1507.5" y="-1763.53" width="165" height="100" as="geometry" />
        </mxCell>
        <mxCell id="dTmaL1U6KmH8cPu5LNKW-103" style="edgeStyle=orthogonalEdgeStyle;curved=1;rounded=0;orthogonalLoop=1;jettySize=auto;html=1;entryX=0;entryY=0.5;entryDx=0;entryDy=0;dashed=1;" edge="1" parent="1" source="dTmaL1U6KmH8cPu5LNKW-20" target="dTmaL1U6KmH8cPu5LNKW-80">
          <mxGeometry relative="1" as="geometry" />
        </mxCell>
        <mxCell id="dTmaL1U6KmH8cPu5LNKW-104" style="edgeStyle=orthogonalEdgeStyle;curved=1;rounded=0;orthogonalLoop=1;jettySize=auto;html=1;dashed=1;" edge="1" parent="1" source="dTmaL1U6KmH8cPu5LNKW-20" target="dTmaL1U6KmH8cPu5LNKW-79">
          <mxGeometry relative="1" as="geometry" />
        </mxCell>
        <mxCell id="dTmaL1U6KmH8cPu5LNKW-105" style="edgeStyle=orthogonalEdgeStyle;curved=1;rounded=0;orthogonalLoop=1;jettySize=auto;html=1;entryX=0;entryY=0.75;entryDx=0;entryDy=0;dashed=1;" edge="1" parent="1" source="dTmaL1U6KmH8cPu5LNKW-20" target="dTmaL1U6KmH8cPu5LNKW-81">
          <mxGeometry relative="1" as="geometry" />
        </mxCell>
        <mxCell id="dTmaL1U6KmH8cPu5LNKW-20" value="handle" style="rounded=1;whiteSpace=wrap;html=1;fillColor=#fff2cc;strokeColor=#d6b656;" vertex="1" parent="1">
          <mxGeometry x="-1542.5" y="-2018.53" width="120" height="60" as="geometry" />
        </mxCell>
        <mxCell id="dTmaL1U6KmH8cPu5LNKW-22" value="job status change&lt;br&gt;running" style="rounded=1;whiteSpace=wrap;html=1;fillColor=#fff2cc;strokeColor=#d6b656;" vertex="1" parent="1">
          <mxGeometry x="-1542.5" y="-2088.53" width="120" height="60" as="geometry" />
        </mxCell>
        <mxCell id="dTmaL1U6KmH8cPu5LNKW-23" value="job status change&lt;br&gt;finish" style="rounded=1;whiteSpace=wrap;html=1;fillColor=#fff2cc;strokeColor=#d6b656;" vertex="1" parent="1">
          <mxGeometry x="-1542.5" y="-1948.53" width="120" height="60" as="geometry" />
        </mxCell>
        <mxCell id="dTmaL1U6KmH8cPu5LNKW-24" value="JobExecuteThreadPool" style="text;html=1;strokeColor=none;fillColor=none;align=center;verticalAlign=middle;whiteSpace=wrap;rounded=0;" vertex="1" parent="1">
          <mxGeometry x="-1517.5" y="-2170" width="60" height="30" as="geometry" />
        </mxCell>
        <mxCell id="dTmaL1U6KmH8cPu5LNKW-27" value="queue" style="shape=process;whiteSpace=wrap;html=1;backgroundOutline=1;direction=south;" vertex="1" parent="1">
          <mxGeometry x="-1530" y="-1623.53" width="60" height="120" as="geometry" />
        </mxCell>
        <mxCell id="dTmaL1U6KmH8cPu5LNKW-28" value="" style="shape=process;whiteSpace=wrap;html=1;backgroundOutline=1;direction=south;" vertex="1" parent="1">
          <mxGeometry x="-1455" y="-1623.53" width="60" height="120" as="geometry" />
        </mxCell>
        <mxCell id="dTmaL1U6KmH8cPu5LNKW-29" value="" style="shape=process;whiteSpace=wrap;html=1;backgroundOutline=1;direction=south;" vertex="1" parent="1">
          <mxGeometry x="-1380" y="-1623.53" width="60" height="120" as="geometry" />
        </mxCell>
        <mxCell id="dTmaL1U6KmH8cPu5LNKW-64" style="edgeStyle=orthogonalEdgeStyle;curved=1;rounded=0;orthogonalLoop=1;jettySize=auto;html=1;" edge="1" parent="1" source="dTmaL1U6KmH8cPu5LNKW-35" target="dTmaL1U6KmH8cPu5LNKW-27">
          <mxGeometry relative="1" as="geometry" />
        </mxCell>
        <mxCell id="dTmaL1U6KmH8cPu5LNKW-65" style="edgeStyle=orthogonalEdgeStyle;curved=1;rounded=0;orthogonalLoop=1;jettySize=auto;html=1;" edge="1" parent="1" source="dTmaL1U6KmH8cPu5LNKW-35" target="dTmaL1U6KmH8cPu5LNKW-28">
          <mxGeometry relative="1" as="geometry" />
        </mxCell>
        <mxCell id="dTmaL1U6KmH8cPu5LNKW-66" style="edgeStyle=orthogonalEdgeStyle;curved=1;rounded=0;orthogonalLoop=1;jettySize=auto;html=1;" edge="1" parent="1" source="dTmaL1U6KmH8cPu5LNKW-35" target="dTmaL1U6KmH8cPu5LNKW-29">
          <mxGeometry relative="1" as="geometry" />
        </mxCell>
        <mxCell id="dTmaL1U6KmH8cPu5LNKW-35" value="hash(job_id)" style="rounded=1;whiteSpace=wrap;html=1;" vertex="1" parent="1">
          <mxGeometry x="-1487.5" y="-1733.53" width="120" height="60" as="geometry" />
        </mxCell>
        <mxCell id="dTmaL1U6KmH8cPu5LNKW-36" value="JobStatusListener" style="text;html=1;strokeColor=none;fillColor=none;align=center;verticalAlign=middle;whiteSpace=wrap;rounded=0;" vertex="1" parent="1">
          <mxGeometry x="-1457.5" y="-1763.53" width="60" height="30" as="geometry" />
        </mxCell>
        <mxCell id="dTmaL1U6KmH8cPu5LNKW-42" value="job status change&lt;br&gt;submit ack/waiting" style="rounded=1;whiteSpace=wrap;html=1;fillColor=#dae8fc;strokeColor=#6c8ebf;" vertex="1" parent="1">
          <mxGeometry x="-2180" y="-2020" width="120" height="60" as="geometry" />
        </mxCell>
        <mxCell id="dTmaL1U6KmH8cPu5LNKW-44" value="thread" style="rounded=0;whiteSpace=wrap;html=1;direction=south;" vertex="1" parent="1">
          <mxGeometry x="-1530" y="-1493.53" width="60" height="120" as="geometry" />
        </mxCell>
        <mxCell id="dTmaL1U6KmH8cPu5LNKW-45" value="thread" style="rounded=0;whiteSpace=wrap;html=1;direction=south;" vertex="1" parent="1">
          <mxGeometry x="-1455" y="-1493.53" width="60" height="120" as="geometry" />
        </mxCell>
        <mxCell id="dTmaL1U6KmH8cPu5LNKW-46" value="thread" style="rounded=0;whiteSpace=wrap;html=1;direction=south;" vertex="1" parent="1">
          <mxGeometry x="-1380" y="-1493.53" width="60" height="120" as="geometry" />
        </mxCell>
        <mxCell id="dTmaL1U6KmH8cPu5LNKW-47" value="" style="whiteSpace=wrap;html=1;" vertex="1" parent="1">
          <mxGeometry x="-1820" y="-2155" width="180" height="210" as="geometry" />
        </mxCell>
        <mxCell id="dTmaL1U6KmH8cPu5LNKW-48" value="take from queue" style="rounded=1;whiteSpace=wrap;html=1;fillColor=#d5e8d4;strokeColor=#82b366;" vertex="1" parent="1">
          <mxGeometry x="-1790" y="-2095" width="120" height="60" as="geometry" />
        </mxCell>
        <mxCell id="dTmaL1U6KmH8cPu5LNKW-50" style="edgeStyle=orthogonalEdgeStyle;curved=1;rounded=0;orthogonalLoop=1;jettySize=auto;html=1;" edge="1" parent="1" source="dTmaL1U6KmH8cPu5LNKW-49" target="dTmaL1U6KmH8cPu5LNKW-16">
          <mxGeometry relative="1" as="geometry" />
        </mxCell>
        <mxCell id="dTmaL1U6KmH8cPu5LNKW-75" style="edgeStyle=orthogonalEdgeStyle;curved=1;rounded=0;orthogonalLoop=1;jettySize=auto;html=1;dashed=1;" edge="1" parent="1" source="dTmaL1U6KmH8cPu5LNKW-49" target="dTmaL1U6KmH8cPu5LNKW-55">
          <mxGeometry relative="1" as="geometry" />
        </mxCell>
        <mxCell id="dTmaL1U6KmH8cPu5LNKW-76" value="submit fail" style="edgeLabel;html=1;align=center;verticalAlign=middle;resizable=0;points=[];" vertex="1" connectable="0" parent="dTmaL1U6KmH8cPu5LNKW-75">
          <mxGeometry x="0.1718" y="-6" relative="1" as="geometry">
            <mxPoint as="offset" />
          </mxGeometry>
        </mxCell>
        <mxCell id="dTmaL1U6KmH8cPu5LNKW-49" value="push to queue" style="rounded=1;whiteSpace=wrap;html=1;fillColor=#dae8fc;strokeColor=#6c8ebf;" vertex="1" parent="1">
          <mxGeometry x="-2180" y="-2090" width="120" height="60" as="geometry" />
        </mxCell>
        <mxCell id="dTmaL1U6KmH8cPu5LNKW-51" value="managerThread" style="text;html=1;strokeColor=none;fillColor=none;align=center;verticalAlign=middle;whiteSpace=wrap;rounded=0;" vertex="1" parent="1">
          <mxGeometry x="-1760" y="-2155" width="60" height="30" as="geometry" />
        </mxCell>
        <mxCell id="dTmaL1U6KmH8cPu5LNKW-60" style="edgeStyle=orthogonalEdgeStyle;curved=1;rounded=0;orthogonalLoop=1;jettySize=auto;html=1;" edge="1" parent="1" source="dTmaL1U6KmH8cPu5LNKW-53" target="dTmaL1U6KmH8cPu5LNKW-19">
          <mxGeometry relative="1" as="geometry" />
        </mxCell>
        <mxCell id="dTmaL1U6KmH8cPu5LNKW-73" style="edgeStyle=orthogonalEdgeStyle;curved=1;rounded=0;orthogonalLoop=1;jettySize=auto;html=1;dashed=1;exitX=0.5;exitY=1;exitDx=0;exitDy=0;" edge="1" parent="1" source="dTmaL1U6KmH8cPu5LNKW-53" target="dTmaL1U6KmH8cPu5LNKW-55">
          <mxGeometry relative="1" as="geometry" />
        </mxCell>
        <mxCell id="dTmaL1U6KmH8cPu5LNKW-74" value="submit fail" style="edgeLabel;html=1;align=center;verticalAlign=middle;resizable=0;points=[];" vertex="1" connectable="0" parent="dTmaL1U6KmH8cPu5LNKW-73">
          <mxGeometry x="-0.2001" y="21" relative="1" as="geometry">
            <mxPoint as="offset" />
          </mxGeometry>
        </mxCell>
        <mxCell id="dTmaL1U6KmH8cPu5LNKW-53" value="submit to thread pool" style="rounded=1;whiteSpace=wrap;html=1;fillColor=#d5e8d4;strokeColor=#82b366;" vertex="1" parent="1">
          <mxGeometry x="-1790" y="-2025" width="120" height="60" as="geometry" />
        </mxCell>
        <mxCell id="dTmaL1U6KmH8cPu5LNKW-55" value="" style="rounded=0;whiteSpace=wrap;html=1;" vertex="1" parent="1">
          <mxGeometry x="-2073.32" y="-1873.53" width="270" height="110" as="geometry" />
        </mxCell>
        <mxCell id="dTmaL1U6KmH8cPu5LNKW-56" value="rejectHandler" style="text;html=1;strokeColor=none;fillColor=none;align=center;verticalAlign=middle;whiteSpace=wrap;rounded=0;" vertex="1" parent="1">
          <mxGeometry x="-1968.32" y="-1873.53" width="60" height="30" as="geometry" />
        </mxCell>
        <mxCell id="dTmaL1U6KmH8cPu5LNKW-69" value="&lt;span&gt;thread消费queue通知相关的订阅者&lt;/span&gt;" style="shape=callout;whiteSpace=wrap;html=1;perimeter=calloutPerimeter;position2=1;" vertex="1" parent="1">
          <mxGeometry x="-1670" y="-1538.03" width="120" height="80" as="geometry" />
        </mxCell>
        <mxCell id="dTmaL1U6KmH8cPu5LNKW-70" value="阻塞策略" style="rounded=0;whiteSpace=wrap;html=1;" vertex="1" parent="1">
          <mxGeometry x="-2063.32" y="-1838.53" width="120" height="60" as="geometry" />
        </mxCell>
        <mxCell id="dTmaL1U6KmH8cPu5LNKW-71" value="放弃策略" style="rounded=0;whiteSpace=wrap;html=1;" vertex="1" parent="1">
          <mxGeometry x="-1933.32" y="-1838.53" width="120" height="60" as="geometry" />
        </mxCell>
        <mxCell id="dTmaL1U6KmH8cPu5LNKW-79" value="mysqljob impl" style="rounded=0;whiteSpace=wrap;html=1;" vertex="1" parent="1">
          <mxGeometry x="-1310.25" y="-2020" width="120" height="60" as="geometry" />
        </mxCell>
        <mxCell id="dTmaL1U6KmH8cPu5LNKW-80" value="dataxjob impl" style="rounded=0;whiteSpace=wrap;html=1;" vertex="1" parent="1">
          <mxGeometry x="-1310.25" y="-2090" width="120" height="60" as="geometry" />
        </mxCell>
        <mxCell id="dTmaL1U6KmH8cPu5LNKW-81" value="hivejob impl" style="rounded=0;whiteSpace=wrap;html=1;" vertex="1" parent="1">
          <mxGeometry x="-1310.25" y="-1950" width="120" height="60" as="geometry" />
        </mxCell>
        <mxCell id="dTmaL1U6KmH8cPu5LNKW-86" value="JobFactory" style="text;html=1;strokeColor=none;fillColor=none;align=center;verticalAlign=middle;whiteSpace=wrap;rounded=0;" vertex="1" parent="1">
          <mxGeometry x="-1280.25" y="-2140" width="60" height="30" as="geometry" />
        </mxCell>
        <mxCell id="dTmaL1U6KmH8cPu5LNKW-92" style="edgeStyle=orthogonalEdgeStyle;curved=1;rounded=0;orthogonalLoop=1;jettySize=auto;html=1;" edge="1" parent="1" source="dTmaL1U6KmH8cPu5LNKW-16" target="dTmaL1U6KmH8cPu5LNKW-48">
          <mxGeometry relative="1" as="geometry" />
        </mxCell>
        <mxCell id="dTmaL1U6KmH8cPu5LNKW-93" value="worker monitor" style="rounded=0;whiteSpace=wrap;html=1;" vertex="1" parent="1">
          <mxGeometry x="-1790" y="-2270" width="120" height="60" as="geometry" />
        </mxCell>
        <mxCell id="dTmaL1U6KmH8cPu5LNKW-99" style="edgeStyle=orthogonalEdgeStyle;curved=1;rounded=0;orthogonalLoop=1;jettySize=auto;html=1;entryX=0;entryY=0.5;entryDx=0;entryDy=0;" edge="1" parent="1" source="dTmaL1U6KmH8cPu5LNKW-98" target="dTmaL1U6KmH8cPu5LNKW-18">
          <mxGeometry relative="1" as="geometry" />
        </mxCell>
        <mxCell id="dTmaL1U6KmH8cPu5LNKW-98" value="job status change" style="rounded=1;whiteSpace=wrap;html=1;fillColor=#fff2cc;strokeColor=#d6b656;" vertex="1" parent="1">
          <mxGeometry x="-1710" y="-1743.53" width="120" height="60" as="geometry" />
        </mxCell>
        <mxCell id="dTmaL1U6KmH8cPu5LNKW-102" value="executeThread" style="text;html=1;strokeColor=none;fillColor=none;align=center;verticalAlign=middle;whiteSpace=wrap;rounded=0;" vertex="1" parent="1">
          <mxGeometry x="-1517.5" y="-2125" width="60" height="30" as="geometry" />
        </mxCell>
        <mxCell id="dTmaL1U6KmH8cPu5LNKW-106" value="job reference container" style="rounded=0;whiteSpace=wrap;html=1;" vertex="1" parent="1">
          <mxGeometry x="-2020" y="-2025" width="160" height="60" as="geometry" />
        </mxCell>
      </root>
    </mxGraphModel>
  </diagram>
</mxfile>
